<svg width="75" height="75" viewBox="0 0 75 75" fill="none" xmlns="http://www.w3.org/2000/svg">
<circle cx="37.5" cy="37.5" r="37.5" fill="black"/>
<path fill-rule="evenodd" clip-rule="evenodd" d="M18 43.134C18.0001 42.6434 18.1463 42.168 18.4694 41.7961C19.4999 40.6097 20.9263 39.7912 22.4475 39.1965C22.9317 39.0065 23.0625 38.7582 23.1182 38.2769C23.2654 36.9955 23.4878 35.7141 23.7724 34.4481C23.8329 34.2837 23.8387 34.106 23.7891 33.9385C23.7394 33.771 23.6366 33.6216 23.4944 33.51C22.7508 32.8504 22.0578 32.1426 21.4203 31.3918C20.6371 30.4246 20.2214 29.2399 20.2393 28.0259C20.2014 24.6836 20.1551 21.3418 20.1043 18H27.7017C27.7593 21.3801 27.8171 24.7713 27.8748 28.1791C27.9774 28.1316 28.0672 28.0906 28.148 28.0537L28.1481 28.0537C28.3429 27.9648 28.4843 27.9003 28.6207 27.8266C29.0194 27.6178 29.4164 27.406 29.8135 27.1942L29.8136 27.1942L29.8136 27.1941C30.6873 26.7281 31.5609 26.2621 32.4516 25.8279C32.6147 25.7732 32.754 25.6697 32.848 25.5334C32.942 25.3971 32.9855 25.2356 32.9718 25.0738C32.9678 23.4818 33.3908 21.9143 34.2018 20.5154C34.3411 20.2616 34.5493 20.0467 34.8055 19.8922C35.0616 19.7378 35.3567 19.6493 35.6609 19.6356C37.7383 19.4333 38.2781 19.6356 39.1744 21.4473C39.4841 22.0767 39.6937 22.7502 39.9035 23.4242L39.9035 23.4242L39.9035 23.4242L39.9035 23.4243C40.0349 23.8466 40.1665 24.2693 40.3227 24.6814C40.4309 24.9343 40.6364 25.1399 40.8985 25.2577C41.4774 25.491 42.0672 25.7099 42.6583 25.9292L42.6583 25.9292L42.6584 25.9292C43.4033 26.2057 44.1502 26.4828 44.8799 26.7905C45.315 26.9713 45.5832 27.0112 45.9791 26.7261C47.2728 25.7784 48.7872 25.1303 50.3988 24.8347C50.719 24.7549 51.0569 24.7624 51.3728 24.8563C51.6886 24.9503 51.9693 25.1268 52.1817 25.365C53.6899 26.8978 53.8175 27.1706 52.8197 29.0436C52.5061 29.6405 52.095 30.1862 51.6811 30.7357L51.6811 30.7357C51.4084 31.0977 51.1344 31.4613 50.8862 31.8424C50.7295 32.1041 50.6806 32.4106 50.7488 32.7038C51.1262 34.024 51.5405 35.3371 51.992 36.643C52.0507 36.7815 52.1391 36.9074 52.2516 37.0128C52.3641 37.1183 52.4984 37.201 52.6463 37.2561C54.229 37.6582 55.7044 38.3661 56.9777 39.3345C57.2519 39.5303 57.4614 39.7948 57.5818 40.0976C57.7022 40.4003 57.7287 40.7288 57.6582 41.045C57.3572 43.0315 57.2034 43.3135 55.113 43.7427C53.9166 43.9465 52.7041 44.0552 51.4882 44.0676C51.3044 44.0583 51.1218 44.0999 50.963 44.1871C50.8042 44.2743 50.6763 44.4033 50.5951 44.5581C49.8187 45.6923 48.9986 46.7969 48.1349 47.8719C48.012 47.9832 47.9313 48.1291 47.9053 48.2875C47.8793 48.4458 47.9094 48.6078 47.991 48.7486C48.7229 50.1805 49.0603 51.7613 48.9724 53.3468C48.8645 54.7232 46.6824 55.9157 45.351 55.3087C43.8622 54.5932 42.5965 53.5287 41.6771 52.2187C41.3859 51.8263 41.1275 51.7436 40.5943 51.808C39.2505 51.9632 37.8981 52.0451 36.5442 52.0532C36.0469 52.0532 35.7525 52.1268 35.5039 52.5743C34.7919 53.9638 33.7201 55.1641 32.3862 56.0659C31.0776 56.9089 28.7352 56.0475 28.4081 54.5914C28.0977 53.0775 28.2013 51.5147 28.7091 50.0484C28.8628 49.5609 28.7091 49.331 28.3557 48.9969C27.3743 48.0589 26.4256 47.0718 25.5194 46.0632C25.4318 45.9247 25.2973 45.8174 25.1373 45.7586C24.9773 45.6997 24.8009 45.6926 24.6361 45.7383C23.0332 46.079 21.366 46.0495 19.778 45.6524C18.7004 45.3558 18.0002 44.2089 18 43.1349C18 43.1346 18 43.1343 18 43.134ZM37.6268 28.1853L37.6336 28.1853H37.6205L37.6268 28.1853ZM41.8974 28.9705C40.5433 28.4465 39.0917 28.1797 37.6268 28.1853C31.6168 28.1642 26.5564 32.7856 26.5107 38.3351C26.4779 44.1595 31.3524 48.8957 37.4079 48.9295C38.8745 48.9623 40.3335 48.7216 41.7001 48.2214C43.0666 47.7212 44.3134 46.9714 45.368 46.0158C46.4226 45.0601 47.264 43.9175 47.8432 42.6545C48.4225 41.3914 48.728 40.0331 48.7421 38.6584C48.7562 37.2838 48.4785 35.9202 47.9253 34.6469C47.3721 33.3737 46.5543 32.2162 45.5195 31.2417C44.4846 30.2672 43.2534 29.4952 41.8974 28.9705ZM34.048 43.4979C35.0915 44.1563 36.3197 44.5103 37.5777 44.5151C38.4155 44.5167 39.2454 44.3637 40.02 44.0648C40.7946 43.7659 41.4989 43.3269 42.0925 42.773C42.686 42.219 43.1574 41.5609 43.4796 40.8363C43.8017 40.1117 43.9684 39.3347 43.9702 38.5497C43.9702 37.3709 43.5974 36.2185 42.899 35.238C42.2007 34.2575 41.2079 33.4929 40.0462 33.0407C38.8844 32.5885 37.6057 32.4689 36.3715 32.6971C35.1373 32.9253 34.0029 33.491 33.1115 34.3229C32.2202 35.1547 31.6118 36.2153 31.3632 37.3709C31.1146 38.5265 31.237 39.7251 31.7148 40.8156C32.1926 41.9061 33.0045 42.8394 34.048 43.4979ZM35.9915 36.283C36.4741 35.9866 37.0399 35.8312 37.617 35.8367L37.6203 35.8306C38.3885 35.8371 39.1226 36.1284 39.6622 36.6409C40.2017 37.1533 40.5026 37.8451 40.4991 38.565C40.4991 39.1058 40.3276 39.6343 40.0063 40.0836C39.6851 40.5328 39.2286 40.8825 38.6949 41.0881C38.1611 41.2938 37.5742 41.3462 37.0086 41.2387C36.443 41.1311 35.9243 40.8685 35.5183 40.4842C35.1123 40.0999 34.8374 39.6112 34.7284 39.0801C34.6194 38.5491 34.6812 37.9997 34.9061 37.5017C35.131 37.0037 35.5088 36.5795 35.9915 36.283Z" fill="white"/>
</svg>
